<mxfile modified="2022-05-06T02:38:57.422Z" host="app.diagrams.net" agent="5.0 (Windows NT 10.0; Win64; x64) AppleWebKit/537.36 (KHTML, like Gecko) Chrome/100.0.4896.127 Safari/537.36 Edg/100.0.1185.50" etag="ePyWUg_Ag40SSPsExmh5" compressed="false" version="17.5.0" type="google" pages="6">
  <diagram id="PNMbmcpjVfccN4L3uWqS" name="Development/Patterns/OO/GRASP">
    <mxGraphModel grid="1" page="1" gridSize="10" guides="1" tooltips="1" connect="1" arrows="1" fold="1" pageScale="1" pageWidth="827" pageHeight="1169" math="0" shadow="0">
      <root>
        <mxCell id="bOUZJGTAHsHcZiJvw8IB-0" />
        <mxCell id="bOUZJGTAHsHcZiJvw8IB-1" parent="bOUZJGTAHsHcZiJvw8IB-0" />
      </root>
    </mxGraphModel>
  </diagram>
  <diagram id="n3SKksPdV-N4bOmjKrKf" name="Development/Patterns/OO/SOLID">
    <mxGraphModel dx="1711" dy="732" grid="1" gridSize="10" guides="1" tooltips="1" connect="1" arrows="1" fold="1" page="1" pageScale="1" pageWidth="827" pageHeight="1169" math="0" shadow="0">
      <root>
        <mxCell id="7G_PbEm9kd98VSfMIWQv-0" />
        <mxCell id="Wme40enz_oUWNpX5_eNP-7" value="Notes" style="" parent="7G_PbEm9kd98VSfMIWQv-0" />
        <mxCell id="7G_PbEm9kd98VSfMIWQv-13" style="edgeStyle=orthogonalEdgeStyle;rounded=0;orthogonalLoop=1;jettySize=auto;html=1;entryX=0.5;entryY=1;entryDx=0;entryDy=0;fontSize=9;strokeColor=#CCCCCC;endArrow=none;endFill=0;" parent="Wme40enz_oUWNpX5_eNP-7" source="7G_PbEm9kd98VSfMIWQv-7" target="7G_PbEm9kd98VSfMIWQv-2" edge="1">
          <mxGeometry relative="1" as="geometry" />
        </mxCell>
        <mxCell id="7G_PbEm9kd98VSfMIWQv-7" value="&lt;div style=&quot;font-size: 12px;&quot;&gt;SOC:&lt;br style=&quot;font-size: 12px;&quot;&gt;&lt;br style=&quot;font-size: 12px;&quot;&gt;An object should have&amp;nbsp;&lt;span style=&quot;font-size: 12px;&quot;&gt;one and only one reason&amp;nbsp;&lt;/span&gt;&lt;span style=&quot;font-size: 12px;&quot;&gt;to change, meaning&amp;nbsp;&lt;/span&gt;&lt;/div&gt;&lt;div style=&quot;font-size: 12px;&quot;&gt;that a class should&amp;nbsp;&amp;nbsp;&lt;span style=&quot;font-size: 12px;&quot;&gt;have only one job.&lt;/span&gt;&lt;/div&gt;" style="shape=note;whiteSpace=wrap;html=1;size=14;verticalAlign=top;align=left;spacingTop=-6;fillColor=none;fontSize=12;strokeColor=#CCCCCC;" parent="Wme40enz_oUWNpX5_eNP-7" vertex="1">
          <mxGeometry x="120" y="280" width="100" height="160" as="geometry" />
        </mxCell>
        <mxCell id="7G_PbEm9kd98VSfMIWQv-9" value="&lt;div style=&quot;font-size: 12px;&quot;&gt;OCP:&lt;br style=&quot;font-size: 12px;&quot;&gt;&lt;br style=&quot;font-size: 12px;&quot;&gt;Objects should be&amp;nbsp;&lt;span style=&quot;font-size: 12px;&quot;&gt;open for extension,&amp;nbsp;&lt;/span&gt;&lt;span style=&quot;font-size: 12px;&quot;&gt;but closed for&amp;nbsp;&lt;/span&gt;&lt;span style=&quot;font-size: 12px;&quot;&gt;modification.&lt;/span&gt;&lt;/div&gt;" style="shape=note;whiteSpace=wrap;html=1;size=14;verticalAlign=top;align=left;spacingTop=-6;fillColor=none;fontSize=12;strokeColor=#CCCCCC;" parent="Wme40enz_oUWNpX5_eNP-7" vertex="1">
          <mxGeometry x="230" y="280" width="100" height="160" as="geometry" />
        </mxCell>
        <mxCell id="7G_PbEm9kd98VSfMIWQv-10" value="&lt;div style=&quot;font-size: 12px;&quot;&gt;LSP:&lt;br style=&quot;font-size: 12px;&quot;&gt;&lt;br style=&quot;font-size: 12px;&quot;&gt;Code to the most&amp;nbsp;&amp;nbsp;&lt;span style=&quot;font-size: 12px;&quot;&gt;abstract&amp;nbsp;&lt;br style=&quot;font-size: 12px;&quot;&gt;&lt;/span&gt;&lt;span style=&quot;font-size: 12px;&quot;&gt;representation&amp;nbsp;&amp;nbsp;&lt;br style=&quot;font-size: 12px;&quot;&gt;&lt;/span&gt;&lt;span style=&quot;font-size: 12px;&quot;&gt;(ie, a base class).&lt;/span&gt;&lt;/div&gt;&lt;div style=&quot;font-size: 12px;&quot;&gt;&lt;br style=&quot;font-size: 12px;&quot;&gt;&lt;/div&gt;" style="shape=note;whiteSpace=wrap;html=1;size=14;verticalAlign=top;align=left;spacingTop=-6;fillColor=none;fontSize=12;strokeColor=#CCCCCC;" parent="Wme40enz_oUWNpX5_eNP-7" vertex="1">
          <mxGeometry x="340" y="280" width="100" height="160" as="geometry" />
        </mxCell>
        <mxCell id="7G_PbEm9kd98VSfMIWQv-11" value="&lt;div style=&quot;font-size: 12px;&quot;&gt;ISP:&lt;br style=&quot;font-size: 12px;&quot;&gt;&lt;br style=&quot;font-size: 12px;&quot;&gt;clients should not&lt;/div&gt;&lt;div style=&quot;font-size: 12px;&quot;&gt;be forced to implement/use&lt;/div&gt;&lt;div style=&quot;font-size: 12px;&quot;&gt;interface/methods&lt;/div&gt;&lt;div style=&quot;font-size: 12px;&quot;&gt;they do not require.&lt;/div&gt;" style="shape=note;whiteSpace=wrap;html=1;size=14;verticalAlign=top;align=left;spacingTop=-6;fillColor=none;fontSize=12;strokeColor=#CCCCCC;" parent="Wme40enz_oUWNpX5_eNP-7" vertex="1">
          <mxGeometry x="450" y="280" width="100" height="160" as="geometry" />
        </mxCell>
        <mxCell id="7G_PbEm9kd98VSfMIWQv-12" value="&lt;div style=&quot;font-size: 12px;&quot;&gt;DIP:&lt;br style=&quot;font-size: 12px;&quot;&gt;&lt;br style=&quot;font-size: 12px;&quot;&gt;Entities must depend&amp;nbsp;&amp;nbsp;&lt;span style=&quot;font-size: 12px;&quot;&gt;on abstractions not&lt;/span&gt;&lt;/div&gt;&lt;div style=&quot;font-size: 12px;&quot;&gt;on concretions.&amp;nbsp;&lt;/div&gt;&lt;div style=&quot;font-size: 12px;&quot;&gt;(JGI).&lt;/div&gt;" style="shape=note;whiteSpace=wrap;html=1;size=14;verticalAlign=top;align=left;spacingTop=-6;fillColor=none;fontSize=12;strokeColor=#CCCCCC;" parent="Wme40enz_oUWNpX5_eNP-7" vertex="1">
          <mxGeometry x="560" y="280" width="100" height="160" as="geometry" />
        </mxCell>
        <mxCell id="7G_PbEm9kd98VSfMIWQv-14" style="edgeStyle=orthogonalEdgeStyle;rounded=0;orthogonalLoop=1;jettySize=auto;html=1;entryX=0.5;entryY=1;entryDx=0;entryDy=0;fontSize=9;strokeColor=#CCCCCC;endArrow=none;endFill=0;exitX=0.5;exitY=0;exitDx=0;exitDy=0;exitPerimeter=0;" parent="Wme40enz_oUWNpX5_eNP-7" source="7G_PbEm9kd98VSfMIWQv-9" target="7G_PbEm9kd98VSfMIWQv-4" edge="1">
          <mxGeometry relative="1" as="geometry">
            <mxPoint x="169.86206896551732" y="290" as="sourcePoint" />
            <mxPoint x="169.86206896551732" y="250" as="targetPoint" />
          </mxGeometry>
        </mxCell>
        <mxCell id="7G_PbEm9kd98VSfMIWQv-15" style="edgeStyle=orthogonalEdgeStyle;rounded=0;orthogonalLoop=1;jettySize=auto;html=1;entryX=0.5;entryY=1;entryDx=0;entryDy=0;fontSize=9;strokeColor=#CCCCCC;endArrow=none;endFill=0;exitX=0.5;exitY=0;exitDx=0;exitDy=0;exitPerimeter=0;" parent="Wme40enz_oUWNpX5_eNP-7" source="7G_PbEm9kd98VSfMIWQv-10" target="7G_PbEm9kd98VSfMIWQv-3" edge="1">
          <mxGeometry relative="1" as="geometry">
            <mxPoint x="289.8620689655173" y="290" as="sourcePoint" />
            <mxPoint x="289.8620689655173" y="250" as="targetPoint" />
          </mxGeometry>
        </mxCell>
        <mxCell id="7G_PbEm9kd98VSfMIWQv-16" style="edgeStyle=orthogonalEdgeStyle;rounded=0;orthogonalLoop=1;jettySize=auto;html=1;entryX=0.5;entryY=1;entryDx=0;entryDy=0;fontSize=9;strokeColor=#CCCCCC;endArrow=none;endFill=0;exitX=0.5;exitY=0;exitDx=0;exitDy=0;exitPerimeter=0;" parent="Wme40enz_oUWNpX5_eNP-7" source="7G_PbEm9kd98VSfMIWQv-11" target="7G_PbEm9kd98VSfMIWQv-5" edge="1">
          <mxGeometry relative="1" as="geometry">
            <mxPoint x="520" y="280" as="sourcePoint" />
            <mxPoint x="409.8620689655172" y="250" as="targetPoint" />
          </mxGeometry>
        </mxCell>
        <mxCell id="7G_PbEm9kd98VSfMIWQv-17" style="edgeStyle=orthogonalEdgeStyle;rounded=0;orthogonalLoop=1;jettySize=auto;html=1;entryX=0.5;entryY=1;entryDx=0;entryDy=0;fontSize=9;strokeColor=#CCCCCC;endArrow=none;endFill=0;exitX=0.5;exitY=0;exitDx=0;exitDy=0;exitPerimeter=0;" parent="Wme40enz_oUWNpX5_eNP-7" source="7G_PbEm9kd98VSfMIWQv-12" target="7G_PbEm9kd98VSfMIWQv-6" edge="1">
          <mxGeometry relative="1" as="geometry">
            <mxPoint x="530" y="290" as="sourcePoint" />
            <mxPoint x="529.8620689655172" y="250" as="targetPoint" />
          </mxGeometry>
        </mxCell>
        <mxCell id="7G_PbEm9kd98VSfMIWQv-1" value="Diagram" style="" parent="7G_PbEm9kd98VSfMIWQv-0" />
        <mxCell id="7G_PbEm9kd98VSfMIWQv-2" value="SOC:&lt;br style=&quot;font-size: 12px;&quot;&gt;Separation of Concerns" style="rounded=0;whiteSpace=wrap;html=1;shadow=0;glass=0;comic=0;strokeColor=#666666;fillColor=#f5f5f5;fontSize=12;align=center;fontColor=#333333;" parent="7G_PbEm9kd98VSfMIWQv-1" vertex="1">
          <mxGeometry x="120" y="200" width="100" height="60" as="geometry" />
        </mxCell>
        <mxCell id="7G_PbEm9kd98VSfMIWQv-3" value="LSP:&lt;br style=&quot;font-size: 12px;&quot;&gt;Liskov&#39;s Segragation&lt;br style=&quot;font-size: 12px;&quot;&gt;Principle" style="rounded=0;whiteSpace=wrap;html=1;shadow=0;glass=0;comic=0;strokeColor=#666666;fillColor=#f5f5f5;fontSize=12;align=center;fontColor=#333333;" parent="7G_PbEm9kd98VSfMIWQv-1" vertex="1">
          <mxGeometry x="340" y="200" width="100" height="60" as="geometry" />
        </mxCell>
        <mxCell id="7G_PbEm9kd98VSfMIWQv-4" value="OCP:&lt;br style=&quot;font-size: 12px;&quot;&gt;Open/Cose Principle" style="rounded=0;whiteSpace=wrap;html=1;shadow=0;glass=0;comic=0;strokeColor=#666666;fillColor=#f5f5f5;fontSize=12;align=center;fontColor=#333333;" parent="7G_PbEm9kd98VSfMIWQv-1" vertex="1">
          <mxGeometry x="230" y="200" width="100" height="60" as="geometry" />
        </mxCell>
        <mxCell id="7G_PbEm9kd98VSfMIWQv-5" value="ISP:&lt;br style=&quot;font-size: 12px;&quot;&gt;Interface Segragation Principle" style="rounded=0;whiteSpace=wrap;html=1;shadow=0;glass=0;comic=0;strokeColor=#666666;fillColor=#f5f5f5;fontSize=12;align=center;fontColor=#333333;" parent="7G_PbEm9kd98VSfMIWQv-1" vertex="1">
          <mxGeometry x="450" y="200" width="100" height="60" as="geometry" />
        </mxCell>
        <mxCell id="7G_PbEm9kd98VSfMIWQv-6" value="DIP:&lt;br style=&quot;font-size: 12px;&quot;&gt;Dependency Inversion Principle" style="rounded=0;whiteSpace=wrap;html=1;shadow=0;glass=0;comic=0;strokeColor=#666666;fillColor=#f5f5f5;fontSize=12;align=center;fontColor=#333333;" parent="7G_PbEm9kd98VSfMIWQv-1" vertex="1">
          <mxGeometry x="560" y="200" width="100" height="60" as="geometry" />
        </mxCell>
        <mxCell id="Wme40enz_oUWNpX5_eNP-3" value="Title/Page" style="" parent="7G_PbEm9kd98VSfMIWQv-0" visible="0" />
        <mxCell id="Wme40enz_oUWNpX5_eNP-4" value="" style="group;fontSize=10;" parent="Wme40enz_oUWNpX5_eNP-3" vertex="1" connectable="0">
          <mxGeometry x="120" y="120" width="560" height="35" as="geometry" />
        </mxCell>
        <mxCell id="Wme40enz_oUWNpX5_eNP-5" value="&lt;font style=&quot;font-size: 12px&quot;&gt;Base Logical Module - Development - Object Oriented (OO) Development Patterns - SOLID&lt;/font&gt;" style="text;strokeColor=none;fillColor=none;html=1;fontSize=24;fontStyle=1;verticalAlign=middle;align=left;shadow=0;glass=0;comic=0;opacity=30;fontColor=#808080;" parent="Wme40enz_oUWNpX5_eNP-4" vertex="1">
          <mxGeometry width="560" height="40" as="geometry" />
        </mxCell>
        <mxCell id="Wme40enz_oUWNpX5_eNP-6" value="" style="line;strokeWidth=2;html=1;shadow=0;glass=0;comic=0;fillColor=none;fontSize=10;fontColor=#CCCCCC;labelBackgroundColor=none;strokeColor=#CCCCCC;" parent="Wme40enz_oUWNpX5_eNP-4" vertex="1">
          <mxGeometry y="35" width="560" height="10" as="geometry" />
        </mxCell>
        <mxCell id="zwMZHRrP1kJkzbbcPImp-0" value="SOLID is arguably the most valuable pattern of all for developers to follow." style="text;html=1;strokeColor=none;fillColor=none;align=center;verticalAlign=middle;whiteSpace=wrap;rounded=0;fontFamily=Helvetica;fontSize=12;fontColor=#000000;" parent="Wme40enz_oUWNpX5_eNP-3" vertex="1">
          <mxGeometry x="120" y="170" width="560" height="20" as="geometry" />
        </mxCell>
        <mxCell id="9PYrRsnqoWfD5Mer2_B0-0" value="Title/Diagram" parent="7G_PbEm9kd98VSfMIWQv-0" />
        <mxCell id="9PYrRsnqoWfD5Mer2_B0-2" value="&lt;font style=&quot;font-size: 12px ; font-weight: normal&quot;&gt;&lt;i&gt;Diagram: Development - Object Oriented (OO) Development Patterns - SOLID&lt;/i&gt;&lt;/font&gt;" style="text;strokeColor=none;fillColor=none;html=1;fontSize=24;fontStyle=1;verticalAlign=middle;align=left;shadow=0;glass=0;comic=0;opacity=30;fontColor=#808080;" parent="9PYrRsnqoWfD5Mer2_B0-0" vertex="1">
          <mxGeometry x="120" y="500" width="520" height="20" as="geometry" />
        </mxCell>
      </root>
    </mxGraphModel>
  </diagram>
  <diagram name="Development/Patterns/OO" id="I_drhSGoF4ltDFUVRqUW">
    <mxGraphModel dx="1711" dy="732" grid="1" gridSize="10" guides="1" tooltips="1" connect="1" arrows="1" fold="1" page="1" pageScale="1" pageWidth="827" pageHeight="1169" math="0" shadow="0">
      <root>
        <mxCell id="Vv4NoFmh1n3RoFjSBdjZ-0" />
        <mxCell id="Vv4NoFmh1n3RoFjSBdjZ-1" value="Notes" style="" parent="Vv4NoFmh1n3RoFjSBdjZ-0" />
        <mxCell id="Vv4NoFmh1n3RoFjSBdjZ-33" value="manipulate" style="edgeStyle=none;rounded=1;jumpStyle=arc;orthogonalLoop=1;jettySize=auto;html=1;startArrow=none;startFill=0;endArrow=classic;endFill=1;strokeColor=#000000;strokeWidth=1;fontFamily=Helvetica;fontSize=12;" parent="Vv4NoFmh1n3RoFjSBdjZ-1" source="Vv4NoFmh1n3RoFjSBdjZ-25" target="Vv4NoFmh1n3RoFjSBdjZ-26" edge="1">
          <mxGeometry relative="1" as="geometry" />
        </mxCell>
        <mxCell id="Vv4NoFmh1n3RoFjSBdjZ-25" value="Service" style="rounded=0;whiteSpace=wrap;html=1;strokeColor=#000000;strokeWidth=1;fillColor=none;fontFamily=Helvetica;fontSize=12;align=center;" parent="Vv4NoFmh1n3RoFjSBdjZ-1" vertex="1">
          <mxGeometry x="120" y="200" width="80" height="40" as="geometry" />
        </mxCell>
        <mxCell id="Vv4NoFmh1n3RoFjSBdjZ-39" style="edgeStyle=none;rounded=1;jumpStyle=arc;orthogonalLoop=1;jettySize=auto;html=1;startArrow=none;startFill=0;endArrow=block;endFill=0;strokeColor=#000000;strokeWidth=1;fontFamily=Helvetica;fontSize=12;entryX=0.5;entryY=1;entryDx=0;entryDy=0;" parent="Vv4NoFmh1n3RoFjSBdjZ-1" source="Vv4NoFmh1n3RoFjSBdjZ-26" target="Vv4NoFmh1n3RoFjSBdjZ-40" edge="1">
          <mxGeometry relative="1" as="geometry">
            <mxPoint x="360" y="160" as="targetPoint" />
          </mxGeometry>
        </mxCell>
        <mxCell id="Vv4NoFmh1n3RoFjSBdjZ-41" style="edgeStyle=none;rounded=1;jumpStyle=arc;orthogonalLoop=1;jettySize=auto;html=1;startArrow=none;startFill=0;endArrow=block;endFill=0;strokeColor=#000000;strokeWidth=1;fontFamily=Helvetica;fontSize=12;exitX=0.25;exitY=1;exitDx=0;exitDy=0;entryX=0;entryY=0.75;entryDx=0;entryDy=0;" parent="Vv4NoFmh1n3RoFjSBdjZ-1" source="Vv4NoFmh1n3RoFjSBdjZ-26" target="Vv4NoFmh1n3RoFjSBdjZ-26" edge="1">
          <mxGeometry relative="1" as="geometry">
            <mxPoint x="290" y="270" as="targetPoint" />
            <Array as="points">
              <mxPoint x="340" y="250" />
              <mxPoint x="290" y="250" />
              <mxPoint x="290" y="230" />
            </Array>
          </mxGeometry>
        </mxCell>
        <mxCell id="Vv4NoFmh1n3RoFjSBdjZ-26" value="&amp;lt;&amp;lt;Object&amp;gt;&amp;gt;" style="rounded=0;whiteSpace=wrap;html=1;strokeColor=#000000;strokeWidth=1;fillColor=none;fontFamily=Helvetica;fontSize=12;align=center;fontStyle=2;dashed=1;" parent="Vv4NoFmh1n3RoFjSBdjZ-1" vertex="1">
          <mxGeometry x="320" y="200" width="80" height="40" as="geometry" />
        </mxCell>
        <mxCell id="Vv4NoFmh1n3RoFjSBdjZ-34" value="manage" style="edgeStyle=none;rounded=1;jumpStyle=arc;orthogonalLoop=1;jettySize=auto;html=1;entryX=0.5;entryY=0;entryDx=0;entryDy=0;startArrow=diamondThin;startFill=1;endArrow=none;endFill=0;strokeColor=#000000;strokeWidth=1;fontFamily=Helvetica;fontSize=12;" parent="Vv4NoFmh1n3RoFjSBdjZ-1" source="Vv4NoFmh1n3RoFjSBdjZ-27" target="Vv4NoFmh1n3RoFjSBdjZ-28" edge="1">
          <mxGeometry relative="1" as="geometry" />
        </mxCell>
        <mxCell id="Vv4NoFmh1n3RoFjSBdjZ-36" style="edgeStyle=none;rounded=1;jumpStyle=arc;orthogonalLoop=1;jettySize=auto;html=1;entryX=1;entryY=0.75;entryDx=0;entryDy=0;startArrow=none;startFill=0;endArrow=block;endFill=0;strokeColor=#000000;strokeWidth=1;fontFamily=Helvetica;fontSize=12;" parent="Vv4NoFmh1n3RoFjSBdjZ-1" source="Vv4NoFmh1n3RoFjSBdjZ-27" target="Vv4NoFmh1n3RoFjSBdjZ-26" edge="1">
          <mxGeometry relative="1" as="geometry" />
        </mxCell>
        <mxCell id="Vv4NoFmh1n3RoFjSBdjZ-27" value="Entity" style="rounded=0;whiteSpace=wrap;html=1;strokeColor=#000000;strokeWidth=1;fillColor=none;fontFamily=Helvetica;fontSize=12;align=center;" parent="Vv4NoFmh1n3RoFjSBdjZ-1" vertex="1">
          <mxGeometry x="440" y="310" width="80" height="40" as="geometry" />
        </mxCell>
        <mxCell id="Vv4NoFmh1n3RoFjSBdjZ-28" value="Value Object" style="rounded=0;whiteSpace=wrap;html=1;strokeColor=#000000;strokeWidth=1;fillColor=none;fontFamily=Helvetica;fontSize=12;align=center;" parent="Vv4NoFmh1n3RoFjSBdjZ-1" vertex="1">
          <mxGeometry x="440" y="420" width="80" height="40" as="geometry" />
        </mxCell>
        <mxCell id="Vv4NoFmh1n3RoFjSBdjZ-38" value="projections of &lt;br&gt;one or more" style="edgeStyle=none;rounded=1;jumpStyle=arc;orthogonalLoop=1;jettySize=auto;html=1;entryX=0.5;entryY=0;entryDx=0;entryDy=0;startArrow=none;startFill=0;endArrow=classic;endFill=1;strokeColor=#000000;strokeWidth=1;fontFamily=Helvetica;fontSize=12;" parent="Vv4NoFmh1n3RoFjSBdjZ-1" source="Vv4NoFmh1n3RoFjSBdjZ-29" target="Vv4NoFmh1n3RoFjSBdjZ-27" edge="1">
          <mxGeometry relative="1" as="geometry" />
        </mxCell>
        <mxCell id="Vv4NoFmh1n3RoFjSBdjZ-43" style="edgeStyle=none;rounded=1;jumpStyle=arc;orthogonalLoop=1;jettySize=auto;html=1;entryX=0.5;entryY=1;entryDx=0;entryDy=0;startArrow=none;startFill=0;endArrow=block;endFill=0;strokeColor=#000000;strokeWidth=1;fontFamily=Helvetica;fontSize=12;" parent="Vv4NoFmh1n3RoFjSBdjZ-1" source="Vv4NoFmh1n3RoFjSBdjZ-29" target="Vv4NoFmh1n3RoFjSBdjZ-42" edge="1">
          <mxGeometry relative="1" as="geometry" />
        </mxCell>
        <mxCell id="Vv4NoFmh1n3RoFjSBdjZ-29" value="DTO" style="rounded=0;whiteSpace=wrap;html=1;strokeColor=#000000;strokeWidth=1;fillColor=none;fontFamily=Helvetica;fontSize=12;align=center;" parent="Vv4NoFmh1n3RoFjSBdjZ-1" vertex="1">
          <mxGeometry x="440" y="200" width="80" height="40" as="geometry" />
        </mxCell>
        <mxCell id="Vv4NoFmh1n3RoFjSBdjZ-31" value="Objects have Properties &amp;amp; Methods - but only reference &lt;span&gt;themselves&lt;/span&gt; (no other Entity, no other Service).&lt;br&gt;May implement Contracts.&lt;br&gt;May inherit from a single superclass, but it&#39;s strongly unrecommended for maintainability reasons." style="shape=note;whiteSpace=wrap;html=1;size=14;verticalAlign=top;align=left;spacingTop=-6;rounded=1;strokeColor=#000000;strokeWidth=1;fillColor=none;fontFamily=Helvetica;fontSize=12;fontStyle=2" parent="Vv4NoFmh1n3RoFjSBdjZ-1" vertex="1">
          <mxGeometry x="320" y="260" width="100" height="220" as="geometry" />
        </mxCell>
        <mxCell id="Vv4NoFmh1n3RoFjSBdjZ-32" value="Services are context singletons that do not have Properties, but have Methods to manipulate Entities. (ie: they&#39;re instances of Helper Classes)" style="shape=note;whiteSpace=wrap;html=1;size=14;verticalAlign=top;align=left;spacingTop=-6;rounded=1;strokeColor=#000000;strokeWidth=1;fillColor=none;fontFamily=Helvetica;fontSize=12;fontStyle=2" parent="Vv4NoFmh1n3RoFjSBdjZ-1" vertex="1">
          <mxGeometry x="120" y="260" width="100" height="220" as="geometry" />
        </mxCell>
        <mxCell id="Vv4NoFmh1n3RoFjSBdjZ-35" value="Domain Transfer Objects are Special Cases of Messages for external services.&lt;br&gt;&lt;br&gt;DTOs do not expose internal storage identifiers externally to the system." style="shape=note;whiteSpace=wrap;html=1;size=14;verticalAlign=top;align=left;spacingTop=-6;rounded=1;strokeColor=#000000;strokeWidth=1;fillColor=none;fontFamily=Helvetica;fontSize=12;fontStyle=2" parent="Vv4NoFmh1n3RoFjSBdjZ-1" vertex="1">
          <mxGeometry x="540" y="160" width="140" height="120" as="geometry" />
        </mxCell>
        <mxCell id="Vv4NoFmh1n3RoFjSBdjZ-37" style="edgeStyle=none;rounded=1;jumpStyle=arc;orthogonalLoop=1;jettySize=auto;html=1;startArrow=none;startFill=0;endArrow=block;endFill=0;strokeColor=#000000;strokeWidth=1;fontFamily=Helvetica;fontSize=12;exitX=0;exitY=0.5;exitDx=0;exitDy=0;" parent="Vv4NoFmh1n3RoFjSBdjZ-1" source="Vv4NoFmh1n3RoFjSBdjZ-29" edge="1">
          <mxGeometry relative="1" as="geometry">
            <mxPoint x="450" y="250" as="sourcePoint" />
            <mxPoint x="400" y="220" as="targetPoint" />
          </mxGeometry>
        </mxCell>
        <mxCell id="Vv4NoFmh1n3RoFjSBdjZ-40" value="Contracts" style="rounded=0;whiteSpace=wrap;html=1;strokeColor=#000000;strokeWidth=1;fillColor=none;fontFamily=Helvetica;fontSize=12;align=center;fontStyle=2;dashed=1;" parent="Vv4NoFmh1n3RoFjSBdjZ-1" vertex="1">
          <mxGeometry x="320" y="80" width="80" height="40" as="geometry" />
        </mxCell>
        <mxCell id="Vv4NoFmh1n3RoFjSBdjZ-44" style="edgeStyle=none;rounded=1;jumpStyle=arc;orthogonalLoop=1;jettySize=auto;html=1;entryX=1;entryY=0.25;entryDx=0;entryDy=0;startArrow=none;startFill=0;endArrow=block;endFill=0;strokeColor=#000000;strokeWidth=1;fontFamily=Helvetica;fontSize=12;" parent="Vv4NoFmh1n3RoFjSBdjZ-1" source="Vv4NoFmh1n3RoFjSBdjZ-42" target="Vv4NoFmh1n3RoFjSBdjZ-26" edge="1">
          <mxGeometry relative="1" as="geometry" />
        </mxCell>
        <mxCell id="Vv4NoFmh1n3RoFjSBdjZ-42" value="Message" style="rounded=0;whiteSpace=wrap;html=1;strokeColor=#000000;strokeWidth=1;fillColor=none;fontFamily=Helvetica;fontSize=12;align=center;" parent="Vv4NoFmh1n3RoFjSBdjZ-1" vertex="1">
          <mxGeometry x="440" y="80" width="80" height="40" as="geometry" />
        </mxCell>
        <mxCell id="Vv4NoFmh1n3RoFjSBdjZ-45" value="Value objects are objects that have no unique Id property -- they are just sub-parts of Entities that cannot retrieved on their own.&amp;nbsp;&lt;br&gt;&lt;br&gt;Entities are often projections of DB records (at least when ORMs are used)." style="shape=note;whiteSpace=wrap;html=1;size=14;verticalAlign=top;align=left;spacingTop=-6;rounded=1;strokeColor=#000000;strokeWidth=1;fillColor=none;fontFamily=Helvetica;fontSize=12;fontStyle=2" parent="Vv4NoFmh1n3RoFjSBdjZ-1" vertex="1">
          <mxGeometry x="540" y="310" width="140" height="170" as="geometry" />
        </mxCell>
        <mxCell id="Vv4NoFmh1n3RoFjSBdjZ-12" value="Diagram" style="" parent="Vv4NoFmh1n3RoFjSBdjZ-0" />
        <mxCell id="Vv4NoFmh1n3RoFjSBdjZ-18" value="Title/Page" style="" parent="Vv4NoFmh1n3RoFjSBdjZ-0" visible="0" />
        <mxCell id="Vv4NoFmh1n3RoFjSBdjZ-19" value="" style="group;fontSize=10;" parent="Vv4NoFmh1n3RoFjSBdjZ-18" vertex="1" connectable="0">
          <mxGeometry x="120" y="120" width="560" height="35" as="geometry" />
        </mxCell>
        <mxCell id="Vv4NoFmh1n3RoFjSBdjZ-20" value="&lt;font style=&quot;font-size: 12px&quot;&gt;Base Logical Module - Development - Object Oriented (OO) Development Patterns - SOLID&lt;/font&gt;" style="text;strokeColor=none;fillColor=none;html=1;fontSize=24;fontStyle=1;verticalAlign=middle;align=left;shadow=0;glass=0;comic=0;opacity=30;fontColor=#808080;" parent="Vv4NoFmh1n3RoFjSBdjZ-19" vertex="1">
          <mxGeometry width="560" height="40" as="geometry" />
        </mxCell>
        <mxCell id="Vv4NoFmh1n3RoFjSBdjZ-21" value="" style="line;strokeWidth=2;html=1;shadow=0;glass=0;comic=0;fillColor=none;fontSize=10;fontColor=#CCCCCC;labelBackgroundColor=none;strokeColor=#CCCCCC;" parent="Vv4NoFmh1n3RoFjSBdjZ-19" vertex="1">
          <mxGeometry y="35" width="560" height="10" as="geometry" />
        </mxCell>
        <mxCell id="Vv4NoFmh1n3RoFjSBdjZ-22" value="SOLID is arguably the most valuable pattern of all for developers to follow." style="text;html=1;strokeColor=none;fillColor=none;align=center;verticalAlign=middle;whiteSpace=wrap;rounded=0;fontFamily=Helvetica;fontSize=12;fontColor=#000000;" parent="Vv4NoFmh1n3RoFjSBdjZ-18" vertex="1">
          <mxGeometry x="120" y="170" width="560" height="20" as="geometry" />
        </mxCell>
        <mxCell id="Vv4NoFmh1n3RoFjSBdjZ-23" value="Title/Diagram" parent="Vv4NoFmh1n3RoFjSBdjZ-0" />
        <mxCell id="Vv4NoFmh1n3RoFjSBdjZ-24" value="&lt;font style=&quot;font-size: 12px ; font-weight: normal&quot;&gt;&lt;i&gt;Diagram: Development - Object Oriented (OO) Development Concepts&lt;/i&gt;&lt;/font&gt;" style="text;strokeColor=none;fillColor=none;html=1;fontSize=24;fontStyle=1;verticalAlign=middle;align=left;shadow=0;glass=0;comic=0;opacity=30;fontColor=#808080;" parent="Vv4NoFmh1n3RoFjSBdjZ-23" vertex="1">
          <mxGeometry x="120" y="500" width="520" height="20" as="geometry" />
        </mxCell>
      </root>
    </mxGraphModel>
  </diagram>
  <diagram id="gaVSATFC0_fvNZMt8wNA" name="Development/Patterns/Factory">
    <mxGraphModel dx="1711" dy="732" grid="1" gridSize="10" guides="1" tooltips="1" connect="1" arrows="1" fold="1" page="1" pageScale="1" pageWidth="850" pageHeight="1100" math="0" shadow="0">
      <root>
        <mxCell id="a5gPLAfUaWWoGHoybqCl-0" />
        <mxCell id="a5gPLAfUaWWoGHoybqCl-1" parent="a5gPLAfUaWWoGHoybqCl-0" />
        <mxCell id="a5gPLAfUaWWoGHoybqCl-2" value="The FactoryPattern protects the Consumer from &#xa;having to concern itself with the complexity &#xa;required to instantiate Product.&#xa;&#xa;The Consumer requests Factory to Create a &#xa;concrete implementation of IProduct.&#xa;Factory protects Consumer from having &#xa;to know that Product requires the instantiation &#xa;of Required first -- it handles it internally." style="shape=note;whiteSpace=wrap;html=1;size=14;verticalAlign=top;align=left;spacingTop=-6;fontFamily=Helvetica;fontSize=12;fontColor=#000000;strokeColor=#000000;fillColor=none;gradientColor=none;" parent="a5gPLAfUaWWoGHoybqCl-1" vertex="1">
          <mxGeometry x="120" y="240" width="200" height="240" as="geometry" />
        </mxCell>
        <mxCell id="a5gPLAfUaWWoGHoybqCl-6" value="" style="edgeStyle=elbowEdgeStyle;elbow=horizontal;strokeColor=#000000;endArrow=open;entryX=1;entryY=0.25;fontSize=12;entryDx=0;entryDy=0;exitX=0;exitY=0.5;exitDx=0;exitDy=0;" parent="a5gPLAfUaWWoGHoybqCl-1" source="a5gPLAfUaWWoGHoybqCl-15" target="a5gPLAfUaWWoGHoybqCl-12" edge="1">
          <mxGeometry x="-78.125" y="140" width="100" height="100" as="geometry">
            <mxPoint x="546.875" y="515" as="sourcePoint" />
            <mxPoint x="576.875" y="385.875" as="targetPoint" />
          </mxGeometry>
        </mxCell>
        <mxCell id="a5gPLAfUaWWoGHoybqCl-7" value="" style="edgeStyle=elbowEdgeStyle;elbow=horizontal;strokeColor=#000000;endArrow=open;exitX=1;exitY=0.5;entryX=0;entryY=0.5;fontSize=12;exitDx=0;exitDy=0;entryDx=0;entryDy=0;" parent="a5gPLAfUaWWoGHoybqCl-1" source="a5gPLAfUaWWoGHoybqCl-12" target="a5gPLAfUaWWoGHoybqCl-16" edge="1">
          <mxGeometry x="-78.125" y="140" width="100" height="100" as="geometry">
            <mxPoint x="340" y="455" as="sourcePoint" />
            <mxPoint x="576.875" y="385.875" as="targetPoint" />
            <Array as="points">
              <mxPoint x="440" y="510" />
            </Array>
          </mxGeometry>
        </mxCell>
        <mxCell id="a5gPLAfUaWWoGHoybqCl-9" value="" style="edgeStyle=elbowEdgeStyle;elbow=horizontal;strokeColor=#000000;endArrow=open;fontSize=12;exitX=0.5;exitY=1;exitDx=0;exitDy=0;entryX=0.5;entryY=0;entryDx=0;entryDy=0;" parent="a5gPLAfUaWWoGHoybqCl-1" source="a5gPLAfUaWWoGHoybqCl-16" target="a5gPLAfUaWWoGHoybqCl-17" edge="1">
          <mxGeometry x="-58.125" y="160" width="100" height="100" as="geometry">
            <mxPoint x="350" y="645" as="sourcePoint" />
            <mxPoint x="610" y="477.625" as="targetPoint" />
            <Array as="points" />
          </mxGeometry>
        </mxCell>
        <mxCell id="a5gPLAfUaWWoGHoybqCl-10" value="" style="elbow=horizontal;strokeColor=#000000;endArrow=open;exitX=1;exitY=0.75;entryX=0;entryY=0.75;fontSize=12;exitDx=0;exitDy=0;entryDx=0;entryDy=0;" parent="a5gPLAfUaWWoGHoybqCl-1" source="a5gPLAfUaWWoGHoybqCl-12" target="a5gPLAfUaWWoGHoybqCl-17" edge="1">
          <mxGeometry x="-68.125" y="150" width="100" height="100" as="geometry">
            <mxPoint x="350" y="667.5" as="sourcePoint" />
            <mxPoint x="610" y="590" as="targetPoint" />
          </mxGeometry>
        </mxCell>
        <mxCell id="a5gPLAfUaWWoGHoybqCl-11" value="" style="edgeStyle=elbowEdgeStyle;elbow=horizontal;strokeColor=#000000;endArrow=open;entryX=0.5;entryY=0;fontSize=12;exitX=0.5;exitY=1;exitDx=0;exitDy=0;entryDx=0;entryDy=0;" parent="a5gPLAfUaWWoGHoybqCl-1" source="a5gPLAfUaWWoGHoybqCl-15" target="a5gPLAfUaWWoGHoybqCl-16" edge="1">
          <mxGeometry x="-68.125" y="150" width="100" height="100" as="geometry">
            <mxPoint x="350" y="607.5" as="sourcePoint" />
            <mxPoint x="610" y="590" as="targetPoint" />
            <Array as="points" />
          </mxGeometry>
        </mxCell>
        <mxCell id="a5gPLAfUaWWoGHoybqCl-12" value="&lt;p style=&quot;margin: 0px ; margin-top: 4px ; text-align: center&quot;&gt;&lt;b&gt;ProductFactory&lt;/b&gt;&lt;/p&gt;&lt;hr size=&quot;1&quot;&gt;&lt;div style=&quot;height: 2px&quot;&gt;+ Create(): Product&lt;/div&gt;" style="verticalAlign=top;align=left;overflow=fill;fontSize=12;fontFamily=Helvetica;html=1;rounded=0;strokeColor=#000000;fillColor=none;container=0;" parent="a5gPLAfUaWWoGHoybqCl-1" vertex="1">
          <mxGeometry x="120" y="520" width="120" height="80" as="geometry" />
        </mxCell>
        <mxCell id="a5gPLAfUaWWoGHoybqCl-15" value="&lt;p style=&quot;margin: 0px ; margin-top: 4px ; text-align: center&quot;&gt;&lt;b&gt;Consumer&lt;/b&gt;&lt;/p&gt;&lt;hr size=&quot;1&quot;&gt;&lt;div style=&quot;height: 2px&quot;&gt;&lt;/div&gt;" style="verticalAlign=top;align=left;overflow=fill;fontSize=12;fontFamily=Helvetica;html=1;rounded=0;strokeColor=#000000;fillColor=none;" parent="a5gPLAfUaWWoGHoybqCl-1" vertex="1">
          <mxGeometry x="480" y="320" width="140" height="80" as="geometry" />
        </mxCell>
        <mxCell id="a5gPLAfUaWWoGHoybqCl-16" value="&lt;p style=&quot;margin: 0px ; margin-top: 4px ; text-align: center&quot;&gt;&lt;b&gt;Product&lt;/b&gt;&lt;/p&gt;&lt;hr size=&quot;1&quot;&gt;&lt;div style=&quot;height: 2px&quot;&gt;&lt;/div&gt;" style="verticalAlign=top;align=left;overflow=fill;fontSize=12;fontFamily=Helvetica;html=1;rounded=0;strokeColor=#000000;fillColor=none;" parent="a5gPLAfUaWWoGHoybqCl-1" vertex="1">
          <mxGeometry x="480" y="420" width="140" height="80" as="geometry" />
        </mxCell>
        <mxCell id="a5gPLAfUaWWoGHoybqCl-17" value="&lt;p style=&quot;margin: 0px ; margin-top: 4px ; text-align: center&quot;&gt;&lt;b&gt;Required&lt;/b&gt;&lt;/p&gt;&lt;hr size=&quot;1&quot;&gt;&lt;div style=&quot;height: 2px&quot;&gt;&lt;/div&gt;" style="verticalAlign=top;align=left;overflow=fill;fontSize=12;fontFamily=Helvetica;html=1;rounded=0;strokeColor=#000000;fillColor=none;" parent="a5gPLAfUaWWoGHoybqCl-1" vertex="1">
          <mxGeometry x="480" y="520" width="140" height="80" as="geometry" />
        </mxCell>
        <mxCell id="0wJKa9FG8dqlCejYFQBM-0" value="&lt;font style=&quot;font-size: 12px&quot;&gt;Diagram: Base System Logical Module - Development - Patterns - Factory Pattern (Concrete)&lt;/font&gt;" style="text;strokeColor=none;fillColor=none;html=1;fontSize=12;fontStyle=2;verticalAlign=middle;align=left;shadow=0;glass=0;comic=0;opacity=30;fontColor=#808080;" parent="a5gPLAfUaWWoGHoybqCl-1" vertex="1">
          <mxGeometry x="120" y="640" width="520" height="20" as="geometry" />
        </mxCell>
      </root>
    </mxGraphModel>
  </diagram>
  <diagram name="Development/Patterns/Service/Command" id="iLvXuIPMu1a3-xHcW6wZ">
    <mxGraphModel dx="1711" dy="732" grid="1" gridSize="10" guides="1" tooltips="1" connect="1" arrows="1" fold="1" page="1" pageScale="1" pageWidth="850" pageHeight="1100" math="0" shadow="0">
      <root>
        <mxCell id="okaG6ugdYpA1KFKm-hnj-0" />
        <mxCell id="okaG6ugdYpA1KFKm-hnj-1" parent="okaG6ugdYpA1KFKm-hnj-0" />
        <mxCell id="okaG6ugdYpA1KFKm-hnj-2" value="The Abstract Product Factory Pattern&amp;nbsp;&lt;br style=&quot;padding: 0px ; margin: 0px&quot;&gt;protects the Consumer from&amp;nbsp;&lt;br style=&quot;padding: 0px ; margin: 0px&quot;&gt;having to concern itself with the complexity&amp;nbsp;&lt;br style=&quot;padding: 0px ; margin: 0px&quot;&gt;required to instantiate Product.&lt;br style=&quot;padding: 0px ; margin: 0px&quot;&gt;&lt;br style=&quot;padding: 0px ; margin: 0px&quot;&gt;The Consumer requests Factory to Create a&amp;nbsp;&lt;br style=&quot;padding: 0px ; margin: 0px&quot;&gt;concrete implementation of IProduct.&lt;br style=&quot;padding: 0px ; margin: 0px&quot;&gt;Factory protects Consumer from having&amp;nbsp;&lt;br style=&quot;padding: 0px ; margin: 0px&quot;&gt;to know that Product requires the instantiation&amp;nbsp;&lt;br style=&quot;padding: 0px ; margin: 0px&quot;&gt;of Required first -- it handles it internally.&lt;br style=&quot;padding: 0px ; margin: 0px&quot;&gt;&lt;br style=&quot;padding: 0px ; margin: 0px&quot;&gt;As Consumer requested IProduct, it does not&lt;br style=&quot;padding: 0px ; margin: 0px&quot;&gt;need to concern itself with what concrete&amp;nbsp;&lt;br style=&quot;padding: 0px ; margin: 0px&quot;&gt;implementation of Product is returned.&lt;br style=&quot;padding: 0px ; margin: 0px&quot;&gt;It can be a Mock for testing purposes.&lt;div style=&quot;padding: 0px ; margin: 0px&quot;&gt;&lt;br style=&quot;padding: 0px ; margin: 0px ; font-size: 9px ; font-style: italic ; white-space: nowrap&quot;&gt;&lt;/div&gt;" style="shape=note;whiteSpace=wrap;html=1;size=14;verticalAlign=top;align=left;spacingTop=-6;fontFamily=Helvetica;fontSize=12;fontColor=#000000;strokeColor=#000000;fillColor=none;gradientColor=none;" parent="okaG6ugdYpA1KFKm-hnj-1" vertex="1">
          <mxGeometry x="120" y="200" width="260" height="220" as="geometry" />
        </mxCell>
        <mxCell id="okaG6ugdYpA1KFKm-hnj-3" value="" style="edgeStyle=elbowEdgeStyle;elbow=horizontal;strokeColor=#000000;endArrow=open;entryX=1;entryY=0.25;fontSize=12;entryDx=0;entryDy=0;exitX=0;exitY=0.5;exitDx=0;exitDy=0;" parent="okaG6ugdYpA1KFKm-hnj-1" source="okaG6ugdYpA1KFKm-hnj-9" target="okaG6ugdYpA1KFKm-hnj-8" edge="1">
          <mxGeometry x="-78.125" y="140" width="100" height="100" as="geometry">
            <mxPoint x="546.875" y="515" as="sourcePoint" />
            <mxPoint x="576.875" y="385.875" as="targetPoint" />
            <Array as="points">
              <mxPoint x="400" y="440" />
            </Array>
          </mxGeometry>
        </mxCell>
        <mxCell id="okaG6ugdYpA1KFKm-hnj-4" value="" style="edgeStyle=elbowEdgeStyle;elbow=horizontal;strokeColor=#000000;endArrow=open;exitX=1;exitY=0.5;entryX=0;entryY=0.5;fontSize=12;exitDx=0;exitDy=0;entryDx=0;entryDy=0;" parent="okaG6ugdYpA1KFKm-hnj-1" source="okaG6ugdYpA1KFKm-hnj-8" target="okaG6ugdYpA1KFKm-hnj-10" edge="1">
          <mxGeometry x="-78.125" y="140" width="100" height="100" as="geometry">
            <mxPoint x="340" y="455" as="sourcePoint" />
            <mxPoint x="576.875" y="385.875" as="targetPoint" />
            <Array as="points">
              <mxPoint x="440" y="510" />
            </Array>
          </mxGeometry>
        </mxCell>
        <mxCell id="okaG6ugdYpA1KFKm-hnj-5" value="" style="edgeStyle=elbowEdgeStyle;elbow=horizontal;strokeColor=#000000;endArrow=open;fontSize=12;exitX=0.5;exitY=1;exitDx=0;exitDy=0;entryX=0.5;entryY=0;entryDx=0;entryDy=0;" parent="okaG6ugdYpA1KFKm-hnj-1" source="okaG6ugdYpA1KFKm-hnj-10" target="okaG6ugdYpA1KFKm-hnj-11" edge="1">
          <mxGeometry x="-58.125" y="160" width="100" height="100" as="geometry">
            <mxPoint x="350" y="645" as="sourcePoint" />
            <mxPoint x="610" y="477.625" as="targetPoint" />
            <Array as="points" />
          </mxGeometry>
        </mxCell>
        <mxCell id="okaG6ugdYpA1KFKm-hnj-6" value="" style="elbow=horizontal;strokeColor=#000000;endArrow=open;exitX=1;exitY=0.75;entryX=0;entryY=0.75;fontSize=12;exitDx=0;exitDy=0;entryDx=0;entryDy=0;" parent="okaG6ugdYpA1KFKm-hnj-1" source="okaG6ugdYpA1KFKm-hnj-8" target="okaG6ugdYpA1KFKm-hnj-11" edge="1">
          <mxGeometry x="-68.125" y="150" width="100" height="100" as="geometry">
            <mxPoint x="350" y="667.5" as="sourcePoint" />
            <mxPoint x="610" y="590" as="targetPoint" />
          </mxGeometry>
        </mxCell>
        <mxCell id="okaG6ugdYpA1KFKm-hnj-7" value="" style="edgeStyle=elbowEdgeStyle;elbow=horizontal;strokeColor=#000000;endArrow=open;entryX=0.5;entryY=0;fontSize=12;exitX=0.5;exitY=1;exitDx=0;exitDy=0;entryDx=0;entryDy=0;" parent="okaG6ugdYpA1KFKm-hnj-1" source="okaG6ugdYpA1KFKm-hnj-9" target="TGlm50zmPtfraJKfq1L5-2" edge="1">
          <mxGeometry x="-68.125" y="190" width="100" height="100" as="geometry">
            <mxPoint x="350" y="647.5" as="sourcePoint" />
            <mxPoint x="610" y="630" as="targetPoint" />
            <Array as="points" />
          </mxGeometry>
        </mxCell>
        <mxCell id="TGlm50zmPtfraJKfq1L5-1" style="edgeStyle=none;rounded=0;orthogonalLoop=1;jettySize=auto;html=1;strokeColor=#000000;fontFamily=Comic Sans MS;fontSize=12;fontColor=#000000;endArrow=block;endFill=0;dashed=1;" parent="okaG6ugdYpA1KFKm-hnj-1" source="okaG6ugdYpA1KFKm-hnj-8" target="TGlm50zmPtfraJKfq1L5-0" edge="1">
          <mxGeometry relative="1" as="geometry" />
        </mxCell>
        <mxCell id="okaG6ugdYpA1KFKm-hnj-8" value="&lt;p style=&quot;margin: 0px ; margin-top: 4px ; text-align: center&quot;&gt;&lt;b&gt;ProductFactory&lt;/b&gt;&lt;/p&gt;&lt;hr size=&quot;1&quot;&gt;&lt;div style=&quot;height: 2px&quot;&gt;+ Create(): Product&lt;/div&gt;" style="verticalAlign=top;align=left;overflow=fill;fontSize=12;fontFamily=Helvetica;html=1;rounded=0;strokeColor=#000000;fillColor=none;container=0;" parent="okaG6ugdYpA1KFKm-hnj-1" vertex="1">
          <mxGeometry x="120" y="560" width="120" height="60" as="geometry" />
        </mxCell>
        <mxCell id="okaG6ugdYpA1KFKm-hnj-9" value="&lt;p style=&quot;margin: 0px ; margin-top: 4px ; text-align: center&quot;&gt;&lt;b&gt;Consumer&lt;/b&gt;&lt;/p&gt;&lt;hr size=&quot;1&quot;&gt;&lt;div style=&quot;height: 2px&quot;&gt;&lt;/div&gt;" style="verticalAlign=top;align=left;overflow=fill;fontSize=12;fontFamily=Helvetica;html=1;rounded=0;strokeColor=#000000;fillColor=none;" parent="okaG6ugdYpA1KFKm-hnj-1" vertex="1">
          <mxGeometry x="480" y="240" width="100" height="60" as="geometry" />
        </mxCell>
        <mxCell id="TGlm50zmPtfraJKfq1L5-4" style="edgeStyle=none;rounded=0;orthogonalLoop=1;jettySize=auto;html=1;endArrow=block;endFill=0;strokeColor=#000000;fontFamily=Comic Sans MS;fontSize=12;fontColor=#000000;dashed=1;" parent="okaG6ugdYpA1KFKm-hnj-1" source="okaG6ugdYpA1KFKm-hnj-10" target="TGlm50zmPtfraJKfq1L5-2" edge="1">
          <mxGeometry relative="1" as="geometry" />
        </mxCell>
        <mxCell id="okaG6ugdYpA1KFKm-hnj-10" value="&lt;p style=&quot;margin: 0px ; margin-top: 4px ; text-align: center&quot;&gt;&lt;b&gt;Product&lt;/b&gt;&lt;/p&gt;&lt;hr size=&quot;1&quot;&gt;&lt;div style=&quot;height: 2px&quot;&gt;&lt;/div&gt;" style="verticalAlign=top;align=left;overflow=fill;fontSize=12;fontFamily=Helvetica;html=1;rounded=0;strokeColor=#000000;fillColor=none;" parent="okaG6ugdYpA1KFKm-hnj-1" vertex="1">
          <mxGeometry x="480" y="460" width="100" height="60" as="geometry" />
        </mxCell>
        <mxCell id="okaG6ugdYpA1KFKm-hnj-11" value="&lt;p style=&quot;margin: 0px ; margin-top: 4px ; text-align: center&quot;&gt;&lt;b&gt;Required&lt;/b&gt;&lt;/p&gt;&lt;hr size=&quot;1&quot;&gt;&lt;div style=&quot;height: 2px&quot;&gt;&lt;/div&gt;" style="verticalAlign=top;align=left;overflow=fill;fontSize=12;fontFamily=Helvetica;html=1;rounded=0;strokeColor=#000000;fillColor=none;" parent="okaG6ugdYpA1KFKm-hnj-1" vertex="1">
          <mxGeometry x="480" y="560" width="100" height="60" as="geometry" />
        </mxCell>
        <mxCell id="okaG6ugdYpA1KFKm-hnj-12" value="&lt;font style=&quot;font-size: 12px&quot;&gt;Diagram: Base System Logical Module - Development - Patterns - Factory Pattern (Concrete)&lt;/font&gt;" style="text;strokeColor=none;fillColor=none;html=1;fontSize=12;fontStyle=2;verticalAlign=middle;align=left;shadow=0;glass=0;comic=0;opacity=30;fontColor=#808080;" parent="okaG6ugdYpA1KFKm-hnj-1" vertex="1">
          <mxGeometry x="120" y="640" width="520" height="20" as="geometry" />
        </mxCell>
        <mxCell id="okaG6ugdYpA1KFKm-hnj-13" value="" style="group;fontSize=10;" parent="okaG6ugdYpA1KFKm-hnj-1" vertex="1" connectable="0">
          <mxGeometry x="120" y="120" width="560" height="45" as="geometry" />
        </mxCell>
        <mxCell id="okaG6ugdYpA1KFKm-hnj-14" value="&lt;font style=&quot;font-size: 12px&quot;&gt;Base Logical Module - Development - Patterns - Factory Pattern (Abstract)&lt;/font&gt;" style="text;strokeColor=none;fillColor=none;html=1;fontSize=12;fontStyle=1;verticalAlign=middle;align=left;shadow=0;glass=0;comic=0;opacity=30;fontColor=#808080;" parent="okaG6ugdYpA1KFKm-hnj-13" vertex="1">
          <mxGeometry width="560" height="40" as="geometry" />
        </mxCell>
        <mxCell id="okaG6ugdYpA1KFKm-hnj-15" value="" style="line;strokeWidth=2;html=1;shadow=0;glass=0;comic=0;fillColor=none;fontSize=10;fontColor=#CCCCCC;labelBackgroundColor=none;strokeColor=#CCCCCC;" parent="okaG6ugdYpA1KFKm-hnj-13" vertex="1">
          <mxGeometry y="35" width="560" height="10" as="geometry" />
        </mxCell>
        <mxCell id="TGlm50zmPtfraJKfq1L5-0" value="&lt;p style=&quot;margin: 0px ; margin-top: 4px ; text-align: center&quot;&gt;&lt;b&gt;IFactory&lt;/b&gt;&lt;/p&gt;&lt;hr size=&quot;1&quot;&gt;&lt;div style=&quot;height: 2px&quot;&gt;+ Create&amp;lt;T&amp;gt;(): T&lt;/div&gt;" style="verticalAlign=top;align=left;overflow=fill;fontSize=12;fontFamily=Helvetica;html=1;rounded=0;strokeColor=#000000;fillColor=none;container=0;" parent="okaG6ugdYpA1KFKm-hnj-1" vertex="1">
          <mxGeometry x="120" y="450" width="120" height="50" as="geometry" />
        </mxCell>
        <mxCell id="TGlm50zmPtfraJKfq1L5-2" value="&lt;p style=&quot;margin: 0px ; margin-top: 4px ; text-align: center&quot;&gt;&lt;b&gt;IProduct&lt;/b&gt;&lt;/p&gt;&lt;hr size=&quot;1&quot;&gt;&lt;div style=&quot;height: 2px&quot;&gt;+ SomeMethod()&lt;/div&gt;" style="verticalAlign=top;align=left;overflow=fill;fontSize=12;fontFamily=Helvetica;html=1;rounded=0;strokeColor=#000000;fillColor=none;container=0;" parent="okaG6ugdYpA1KFKm-hnj-1" vertex="1">
          <mxGeometry x="480" y="360" width="100" height="60" as="geometry" />
        </mxCell>
      </root>
    </mxGraphModel>
  </diagram>
  <diagram name="Development/Patterns/Service/MVC" id="teZXeI0J9931yghv04_C">
    <mxGraphModel dx="1711" dy="732" grid="1" gridSize="10" guides="1" tooltips="1" connect="1" arrows="1" fold="1" page="1" pageScale="1" pageWidth="850" pageHeight="1100" math="0" shadow="0">
      <root>
        <mxCell id="xM9XGsReBny8OIGWJbV3-0" />
        <mxCell id="xM9XGsReBny8OIGWJbV3-1" value="Diagram" parent="xM9XGsReBny8OIGWJbV3-0" />
        <mxCell id="xM9XGsReBny8OIGWJbV3-20" value="" style="arrow;strokeColor=#d6b656;strokeWidth=1;fontSize=12;fillColor=#fff2cc;" parent="xM9XGsReBny8OIGWJbV3-1" edge="1">
          <mxGeometry width="100" height="100" relative="1" as="geometry">
            <mxPoint x="540" y="240" as="sourcePoint" />
            <mxPoint x="540" y="160" as="targetPoint" />
          </mxGeometry>
        </mxCell>
        <mxCell id="xM9XGsReBny8OIGWJbV3-21" value="" style="arrow;strokeColor=#d6b656;strokeWidth=1;fontSize=12;fillColor=#fff2cc;" parent="xM9XGsReBny8OIGWJbV3-1" edge="1">
          <mxGeometry width="100" height="100" relative="1" as="geometry">
            <mxPoint x="370" y="300" as="sourcePoint" />
            <mxPoint x="450" y="300" as="targetPoint" />
          </mxGeometry>
        </mxCell>
        <mxCell id="xM9XGsReBny8OIGWJbV3-22" value="" style="arrow;strokeColor=#d6b656;strokeWidth=1;fontSize=12;fillColor=#fff2cc;" parent="xM9XGsReBny8OIGWJbV3-1" edge="1">
          <mxGeometry width="100" height="100" relative="1" as="geometry">
            <mxPoint x="250" y="160" as="sourcePoint" />
            <mxPoint x="250" y="240" as="targetPoint" />
          </mxGeometry>
        </mxCell>
        <mxCell id="xM9XGsReBny8OIGWJbV3-23" value="User" style="rounded=0;whiteSpace=wrap;strokeColor=#6c8ebf;fontSize=12;fillColor=#dae8fc;" parent="xM9XGsReBny8OIGWJbV3-1" vertex="1">
          <mxGeometry x="230" y="120" width="270" height="30" as="geometry" />
        </mxCell>
        <mxCell id="xM9XGsReBny8OIGWJbV3-24" value="Controller" style="rounded=0;whiteSpace=wrap;strokeColor=#6c8ebf;fontSize=12;fillColor=#dae8fc;" parent="xM9XGsReBny8OIGWJbV3-1" vertex="1">
          <mxGeometry x="230" y="250" width="100" height="30" as="geometry" />
        </mxCell>
        <mxCell id="xM9XGsReBny8OIGWJbV3-25" value="Models&#xa;(Business Model Entities)" style="rounded=0;whiteSpace=wrap;strokeColor=#6c8ebf;verticalAlign=top;fontSize=12;fillColor=#dae8fc;" parent="xM9XGsReBny8OIGWJbV3-1" vertex="1">
          <mxGeometry x="420" y="340" width="80" height="40" as="geometry" />
        </mxCell>
        <mxCell id="xM9XGsReBny8OIGWJbV3-26" value="Services&#xa;" style="rounded=0;whiteSpace=wrap;strokeColor=#6c8ebf;fontSize=12;fillColor=#dae8fc;" parent="xM9XGsReBny8OIGWJbV3-1" vertex="1">
          <mxGeometry x="230" y="340" width="100" height="40" as="geometry" />
        </mxCell>
        <mxCell id="xM9XGsReBny8OIGWJbV3-27" value="UnitTests" style="rounded=0;whiteSpace=wrap;strokeColor=#666666;fontSize=12;fillColor=#f5f5f5;fontColor=#333333;" parent="xM9XGsReBny8OIGWJbV3-1" vertex="1">
          <mxGeometry x="120" y="250" width="90" height="30" as="geometry" />
        </mxCell>
        <mxCell id="xM9XGsReBny8OIGWJbV3-28" value="&lt;&lt;action&gt;&gt;" style="edgeStyle=none;dashed=1;endArrow=open;entryX=0.5;entryY=0;fontSize=12;" parent="xM9XGsReBny8OIGWJbV3-1" target="xM9XGsReBny8OIGWJbV3-24" edge="1">
          <mxGeometry width="100" height="100" relative="1" as="geometry">
            <mxPoint x="280" y="150" as="sourcePoint" />
            <mxPoint x="270" y="250" as="targetPoint" />
            <mxPoint as="offset" />
          </mxGeometry>
        </mxCell>
        <mxCell id="xM9XGsReBny8OIGWJbV3-29" value="&lt;&lt;update vm&gt;&gt;" style="edgeStyle=none;exitX=1;exitY=0.5;dashed=1;endArrow=open;entryX=0;entryY=0.5;fontSize=12;" parent="xM9XGsReBny8OIGWJbV3-1" source="xM9XGsReBny8OIGWJbV3-24" target="xM9XGsReBny8OIGWJbV3-30" edge="1">
          <mxGeometry width="100" height="100" relative="1" as="geometry">
            <mxPoint x="335" y="295" as="sourcePoint" />
            <mxPoint x="335" y="335" as="targetPoint" />
          </mxGeometry>
        </mxCell>
        <mxCell id="xM9XGsReBny8OIGWJbV3-30" value="View Model" style="rounded=0;whiteSpace=wrap;strokeColor=#6c8ebf;verticalAlign=top;fontSize=12;fillColor=#dae8fc;" parent="xM9XGsReBny8OIGWJbV3-1" vertex="1">
          <mxGeometry x="421.25" y="250" width="80" height="28.75" as="geometry" />
        </mxCell>
        <mxCell id="xM9XGsReBny8OIGWJbV3-31" value="uses" style="edgeStyle=none;exitX=0.5;exitY=1;dashed=1;endArrow=open;fontSize=12;" parent="xM9XGsReBny8OIGWJbV3-1" source="xM9XGsReBny8OIGWJbV3-24" target="xM9XGsReBny8OIGWJbV3-26" edge="1">
          <mxGeometry width="100" height="100" relative="1" as="geometry">
            <mxPoint x="335" y="290" as="sourcePoint" />
            <mxPoint x="335" y="335" as="targetPoint" />
          </mxGeometry>
        </mxCell>
        <mxCell id="xM9XGsReBny8OIGWJbV3-32" value="" style="shape=mxgraph.basic.flash;fillColor=#ffffff;strokeColor=#999999;strokeWidth=1;gradientColor=#FFE599;fontSize=12;" parent="xM9XGsReBny8OIGWJbV3-1" vertex="1">
          <mxGeometry x="290" y="160" width="22.5" height="27.5" as="geometry" />
        </mxCell>
        <mxCell id="xM9XGsReBny8OIGWJbV3-33" value="Changes to ViewModel&#xa;Properties either by Commands&#xa;or other Properties raise an Event&#xa;that causes the UI framework&#xa;to refresh the UI View." style="text;spacingTop=-5;fontStyle=2;fontFamily=Helvetica;fontSize=12;whiteSpace=wrap;" parent="xM9XGsReBny8OIGWJbV3-1" vertex="1">
          <mxGeometry x="572.5" y="175" width="107.5" height="155" as="geometry" />
        </mxCell>
        <mxCell id="xM9XGsReBny8OIGWJbV3-34" value="" style="edgeStyle=none;exitX=1;exitY=0.5;dashed=1;endArrow=open;entryX=0;entryY=0.5;fontSize=12;" parent="xM9XGsReBny8OIGWJbV3-1" source="xM9XGsReBny8OIGWJbV3-27" target="xM9XGsReBny8OIGWJbV3-24" edge="1">
          <mxGeometry width="100" height="100" relative="1" as="geometry">
            <mxPoint x="292.5" y="290" as="sourcePoint" />
            <mxPoint x="292.5" y="323.75" as="targetPoint" />
          </mxGeometry>
        </mxCell>
        <mxCell id="xM9XGsReBny8OIGWJbV3-35" value="View" style="rounded=0;whiteSpace=wrap;strokeColor=#6c8ebf;fontSize=12;fillColor=#dae8fc;" parent="xM9XGsReBny8OIGWJbV3-1" vertex="1">
          <mxGeometry x="421.25" y="190" width="78.75" height="30" as="geometry" />
        </mxCell>
        <mxCell id="xM9XGsReBny8OIGWJbV3-36" value="backs" style="edgeStyle=none;exitX=0.5;exitY=0;dashed=1;endArrow=open;fontSize=12;" parent="xM9XGsReBny8OIGWJbV3-1" source="xM9XGsReBny8OIGWJbV3-30" edge="1">
          <mxGeometry width="100" height="100" relative="1" as="geometry">
            <mxPoint x="323.75" y="290" as="sourcePoint" />
            <mxPoint x="461.25" y="220" as="targetPoint" />
          </mxGeometry>
        </mxCell>
        <mxCell id="xM9XGsReBny8OIGWJbV3-37" value="&lt;&lt;rendered template+data&gt;&gt;" style="edgeStyle=none;exitX=0.5;exitY=0;dashed=1;endArrow=open;fontSize=12;" parent="xM9XGsReBny8OIGWJbV3-1" source="xM9XGsReBny8OIGWJbV3-35" edge="1">
          <mxGeometry width="100" height="100" relative="1" as="geometry">
            <mxPoint x="471.25" y="260" as="sourcePoint" />
            <mxPoint x="460.625" y="150" as="targetPoint" />
          </mxGeometry>
        </mxCell>
        <mxCell id="xM9XGsReBny8OIGWJbV3-38" value="manipulates" style="edgeStyle=none;exitX=1;exitY=0.5;dashed=1;endArrow=open;fontSize=12;" parent="xM9XGsReBny8OIGWJbV3-1" source="xM9XGsReBny8OIGWJbV3-26" target="xM9XGsReBny8OIGWJbV3-25" edge="1">
          <mxGeometry width="100" height="100" relative="1" as="geometry">
            <mxPoint x="292.5" y="320" as="sourcePoint" />
            <mxPoint x="292.5" y="353.75" as="targetPoint" />
          </mxGeometry>
        </mxCell>
        <mxCell id="xM9XGsReBny8OIGWJbV3-39" value="" style="edgeStyle=none;exitX=0.75;exitY=1;dashed=1;endArrow=open;fontSize=12;" parent="xM9XGsReBny8OIGWJbV3-1" source="xM9XGsReBny8OIGWJbV3-24" target="xM9XGsReBny8OIGWJbV3-25" edge="1">
          <mxGeometry width="100" height="100" relative="1" as="geometry">
            <mxPoint x="340" y="335" as="sourcePoint" />
            <mxPoint x="365" y="335" as="targetPoint" />
          </mxGeometry>
        </mxCell>
        <mxCell id="xM9XGsReBny8OIGWJbV3-40" value="embeds" style="edgeStyle=none;dashed=1;endArrow=open;fontSize=12;" parent="xM9XGsReBny8OIGWJbV3-1" target="xM9XGsReBny8OIGWJbV3-25" edge="1">
          <mxGeometry width="100" height="100" relative="1" as="geometry">
            <mxPoint x="461.25" y="280" as="sourcePoint" />
            <mxPoint x="471.25" y="230" as="targetPoint" />
          </mxGeometry>
        </mxCell>
        <mxCell id="xM9XGsReBny8OIGWJbV3-41" value="&lt;&lt;merges v + vm&gt;&gt;" style="edgeStyle=none;exitX=1;exitY=0.5;dashed=1;endArrow=open;entryX=0;entryY=0.5;fontSize=12;" parent="xM9XGsReBny8OIGWJbV3-1" source="xM9XGsReBny8OIGWJbV3-24" target="xM9XGsReBny8OIGWJbV3-35" edge="1">
          <mxGeometry width="100" height="100" relative="1" as="geometry">
            <mxPoint x="340" y="275" as="sourcePoint" />
            <mxPoint x="431.25" y="274.375" as="targetPoint" />
          </mxGeometry>
        </mxCell>
        <mxCell id="6J05yWThwvdI6k0VwKIH-4" value="" style="arrow;strokeColor=#d6b656;strokeWidth=1;fontSize=12;fillColor=#fff2cc;" parent="xM9XGsReBny8OIGWJbV3-1" edge="1">
          <mxGeometry width="100" height="100" relative="1" as="geometry">
            <mxPoint x="420" y="100" as="sourcePoint" />
            <mxPoint x="330" y="100" as="targetPoint" />
          </mxGeometry>
        </mxCell>
        <mxCell id="6J05yWThwvdI6k0VwKIH-1" value="Title/Diagram" parent="xM9XGsReBny8OIGWJbV3-0" />
        <mxCell id="xM9XGsReBny8OIGWJbV3-14" value="&lt;font style=&quot;font-size: 12px&quot;&gt;Diagram: Base System&amp;nbsp;Logical Module - Development - Patterns - MVC Pattern&lt;/font&gt;" style="text;strokeColor=none;fillColor=none;html=1;fontSize=12;fontStyle=2;verticalAlign=middle;align=left;shadow=0;glass=0;comic=0;opacity=30;fontColor=#808080;" parent="6J05yWThwvdI6k0VwKIH-1" vertex="1">
          <mxGeometry x="120" y="410" width="560" height="20" as="geometry" />
        </mxCell>
        <mxCell id="6J05yWThwvdI6k0VwKIH-0" value="TItle/Page" parent="xM9XGsReBny8OIGWJbV3-0" visible="0" />
        <mxCell id="xM9XGsReBny8OIGWJbV3-15" value="" style="group;fontSize=10;" parent="6J05yWThwvdI6k0VwKIH-0" vertex="1" connectable="0">
          <mxGeometry x="120" y="120" width="560" height="45" as="geometry" />
        </mxCell>
        <mxCell id="xM9XGsReBny8OIGWJbV3-16" value="&lt;font style=&quot;font-size: 12px&quot;&gt;Base Logical Module - Development - Patterns - MVC Pattern&lt;/font&gt;" style="text;strokeColor=none;fillColor=none;html=1;fontSize=12;fontStyle=1;verticalAlign=middle;align=left;shadow=0;glass=0;comic=0;opacity=30;fontColor=#808080;" parent="xM9XGsReBny8OIGWJbV3-15" vertex="1">
          <mxGeometry width="560" height="40" as="geometry" />
        </mxCell>
        <mxCell id="xM9XGsReBny8OIGWJbV3-17" value="" style="line;strokeWidth=2;html=1;shadow=0;glass=0;comic=0;fillColor=none;fontSize=10;fontColor=#CCCCCC;labelBackgroundColor=none;strokeColor=#CCCCCC;" parent="xM9XGsReBny8OIGWJbV3-15" vertex="1">
          <mxGeometry y="35" width="560" height="10" as="geometry" />
        </mxCell>
      </root>
    </mxGraphModel>
  </diagram>
</mxfile>
